{
    "accessors" : [
        {
            "bufferView" : 0, 
            "componentType" : 5123, 
            "count" : 93069, 
            "max" : [
                20282
            ], 
            "min" : [
                0
            ], 
            "type" : "SCALAR"
        }, 
        {
            "bufferView" : 1, 
            "componentType" : 5126, 
            "count" : 20283, 
            "max" : [
                1.5079419612884521, 
                1.010740041732788, 
                1.2143019437789917
            ], 
            "min" : [
                -1.5079419612884521, 
                -1.1086570024490356, 
                -1.3452579975128174
            ], 
            "type" : "VEC3"
        }, 
        {
            "bufferView" : 2, 
            "componentType" : 5126, 
            "count" : 20283, 
            "max" : [
                0.999969482421875, 
                0.999969482421875, 
                0.99993896484375
            ], 
            "min" : [
                -0.999969482421875, 
                -0.999969482421875, 
                -0.999969482421875
            ], 
            "type" : "VEC3"
        }, 
        {
            "bufferView" : 3, 
            "componentType" : 5126, 
            "count" : 20283, 
            "max" : [
                1.0, 
                0.9999781250953674, 
                0.9999861121177673, 
                1.0
            ], 
            "min" : [
                -1.0, 
                -0.9997841119766235, 
                -0.9999844431877136, 
                -1.0
            ], 
            "type" : "VEC4"
        }, 
        {
            "bufferView" : 4, 
            "componentType" : 5126, 
            "count" : 20283, 
            "max" : [
                0.9928969740867615, 
                1.0
            ], 
            "min" : [
                0.0, 
                0.0021409988403320312
            ], 
            "type" : "VEC2"
        }
    ], 
    "asset" : {
        "generator" : "Soft8Soft Verge3D for Blender add-on", 
        "version" : "2.0"
    }, 
    "bufferViews" : [
        {
            "buffer" : 0, 
            "byteLength" : 186138, 
            "byteOffset" : 0, 
            "target" : 34963
        }, 
        {
            "buffer" : 0, 
            "byteLength" : 243396, 
            "byteOffset" : 186140, 
            "target" : 34962
        }, 
        {
            "buffer" : 0, 
            "byteLength" : 243396, 
            "byteOffset" : 429536, 
            "target" : 34962
        }, 
        {
            "buffer" : 0, 
            "byteLength" : 324528, 
            "byteOffset" : 672932, 
            "target" : 34962
        }, 
        {
            "buffer" : 0, 
            "byteLength" : 162264, 
            "byteOffset" : 997460, 
            "target" : 34962
        }
    ], 
    "buffers" : [
        {
            "byteLength" : 1159724, 
            "uri" : "suzanne_pbr.bin"
        }
    ], 
    "cameras" : [
        {
            "extensions" : {
                "S8S_v3d_camera_data" : {
                    "controls" : "ORBIT", 
                    "orbitMaxDistance" : 7.0, 
                    "orbitMaxPolarAngle" : 3.1415927410125732, 
                    "orbitMinDistance" : 4.0, 
                    "orbitMinPolarAngle" : 0.0, 
                    "orbitTarget" : [
                        0.0, 
                        0.0, 
                        -0.0
                    ], 
                    "viewportFitInitialAspect" : 1.7777777616808443, 
                    "viewportFitType" : "AUTO"
                }
            }, 
            "name" : "Camera", 
            "perspective" : {
                "aspectRatio" : 1.7777777616808443, 
                "yfov" : 0.5033799416096446, 
                "zfar" : 100.0, 
                "znear" : 0.10000000149011612
            }, 
            "type" : "perspective"
        }
    ], 
    "extensions" : {
        "S8S_v3d_data" : {
            "lights" : [
                {
                    "color" : [
                        0, 
                        0, 
                        0
                    ], 
                    "name" : "Ambient_Scene", 
                    "type" : "ambient"
                }
            ]
        }
    }, 
    "extensionsRequired" : [
        "S8S_v3d_texture_data", 
        "S8S_v3d_material_data", 
        "S8S_v3d_camera_data", 
        "S8S_v3d_data", 
        "S8S_v3d_mesh_data", 
        "S8S_v3d_node_data", 
        "S8S_v3d_scene_data"
    ], 
    "extensionsUsed" : [
        "S8S_v3d_texture_data", 
        "S8S_v3d_material_data", 
        "S8S_v3d_camera_data", 
        "S8S_v3d_data", 
        "S8S_v3d_mesh_data", 
        "S8S_v3d_node_data", 
        "S8S_v3d_scene_data"
    ], 
    "images" : [
        {
            "uri" : "suzannas_helmet_normal.png"
        }, 
        {
            "uri" : "suzannas_helmet_occlusionRoughnessMetallic.jpg"
        }, 
        {
            "uri" : "suzannas_helmet_baseColor.jpg"
        }, 
        {
            "uri" : "environment.jpg"
        }
    ], 
    "materials" : [
        {
            "extensions" : {
                "S8S_v3d_material_data" : {
                    "pbrEnvironmentStrength" : 15.0, 
                    "pbrEnvironmentTexture" : 3
                }
            }, 
            "name" : "susannas_help_PBR", 
            "normalTexture" : {
                "index" : 0
            }, 
            "occlusionTexture" : {
                "index" : 1
            }, 
            "pbrMetallicRoughness" : {
                "baseColorTexture" : {
                    "index" : 2
                }, 
                "metallicRoughnessTexture" : {
                    "index" : 1
                }
            }
        }
    ], 
    "meshes" : [
        {
            "extensions" : {
                "S8S_v3d_mesh_data" : {
                    "colorLayers" : {}, 
                    "uvLayers" : {}
                }
            }, 
            "name" : "Suzanne.023_Suzanne.031", 
            "primitives" : [
                {
                    "attributes" : {
                        "NORMAL" : 2, 
                        "POSITION" : 1, 
                        "TANGENT" : 3, 
                        "TEXCOORD_0" : 4
                    }, 
                    "indices" : 0, 
                    "material" : 0, 
                    "mode" : 4
                }
            ]
        }
    ], 
    "nodes" : [
        {
            "camera" : 0, 
            "extensions" : {
                "S8S_v3d_node_data" : {
                    "frustumCulling" : true, 
                    "hidden" : false, 
                    "renderOrder" : 0
                }
            }, 
            "name" : "Camera", 
            "rotation" : [
                -0.15274617075920105, 
                0.43113070726394653, 
                0.07431614398956299, 
                0.8861557841300964
            ], 
            "scale" : [
                1.0, 
                0.9999999403953552, 
                1.0
            ], 
            "translation" : [
                3.9532058238983154, 
                1.7587759494781494, 
                3.0996923446655273
            ]
        }, 
        {
            "extensions" : {
                "S8S_v3d_node_data" : {
                    "frustumCulling" : true, 
                    "hidden" : false, 
                    "renderOrder" : 0
                }
            }, 
            "mesh" : 0, 
            "name" : "Suzanne.023_Suzanne.031", 
            "rotation" : [
                0.7071068286895752, 
                0.0, 
                -0.0, 
                0.7071068286895752
            ], 
            "translation" : [
                0.0, 
                0.14013569056987762, 
                -0.0
            ]
        }
    ], 
    "samplers" : [
        {}
    ], 
    "scene" : 0, 
    "scenes" : [
        {
            "extensions" : {
                "S8S_v3d_scene_data" : {
                    "ambientColor" : [
                        0.0, 
                        0.0, 
                        0.0
                    ], 
                    "horizonColor" : [
                        0.05087608844041824, 
                        0.05087608844041824, 
                        0.05087608844041824
                    ], 
                    "light" : 0, 
                    "worldTexture" : 3
                }
            }, 
            "name" : "Scene", 
            "nodes" : [
                1, 
                0
            ]
        }
    ], 
    "textures" : [
        {
            "name" : "Image Texture.002", 
            "sampler" : 0, 
            "source" : 0
        }, 
        {
            "name" : "Image Texture.001", 
            "sampler" : 0, 
            "source" : 1
        }, 
        {
            "name" : "Image Texture", 
            "sampler" : 0, 
            "source" : 2
        }, 
        {
            "extensions" : {
                "S8S_v3d_texture_data" : {
                    "colorSpace" : "srgb"
                }
            }, 
            "name" : "Texture", 
            "sampler" : 0, 
            "source" : 3
        }, 
        {
            "name" : "Environment Texture", 
            "sampler" : 0, 
            "source" : 3
        }
    ]
}
