{
    "accessors" : [
        {
            "bufferView" : 0, 
            "componentType" : 5125, 
            "count" : 150528, 
            "max" : [
                100270
            ], 
            "min" : [
                0
            ], 
            "type" : "SCALAR"
        }, 
        {
            "bufferView" : 1, 
            "componentType" : 5126, 
            "count" : 100271, 
            "max" : [
                2.126819372177124, 
                0.8778550028800964, 
                3.144634246826172
            ], 
            "min" : [
                -5.673587799072266, 
                -0.8294802904129028, 
                -1.9732680320739746
            ], 
            "type" : "VEC3"
        }, 
        {
            "bufferView" : 2, 
            "componentType" : 5126, 
            "count" : 100271, 
            "max" : [
                0.8489677906036377, 
                0.9965519905090332, 
                0.9449452757835388
            ], 
            "min" : [
                -0.9854105114936829, 
                -1.0, 
                -0.9686665534973145
            ], 
            "type" : "VEC3"
        }, 
        {
            "bufferView" : 3, 
            "componentType" : 5126, 
            "count" : 100271, 
            "max" : [
                1.5828350115043577e-06, 
                2.0553179638227448e-06, 
                0.9449485540390015, 
                1.0
            ], 
            "min" : [
                -0.3379342257976532, 
                -1.0, 
                -1.004925366032694e-06, 
                1.0
            ], 
            "type" : "VEC4"
        }, 
        {
            "bufferView" : 4, 
            "componentType" : 5126, 
            "count" : 100271, 
            "max" : [
                1.0, 
                1.0
            ], 
            "min" : [
                0.0, 
                0.0
            ], 
            "type" : "VEC2"
        }, 
        {
            "bufferView" : 5, 
            "componentType" : 5121, 
            "count" : 36, 
            "max" : [
                23
            ], 
            "min" : [
                0
            ], 
            "type" : "SCALAR"
        }, 
        {
            "bufferView" : 6, 
            "componentType" : 5126, 
            "count" : 24, 
            "max" : [
                1.0, 
                1.0, 
                1.0
            ], 
            "min" : [
                -1.0, 
                -1.0, 
                -1.0
            ], 
            "type" : "VEC3"
        }, 
        {
            "bufferView" : 7, 
            "componentType" : 5126, 
            "count" : 24, 
            "max" : [
                1.0, 
                1.0, 
                1.0
            ], 
            "min" : [
                -1.0, 
                -1.0, 
                -1.0
            ], 
            "type" : "VEC3"
        }
    ], 
    "asset" : {
        "generator" : "Soft8Soft Verge3D for Blender add-on", 
        "version" : "2.0"
    }, 
    "bufferViews" : [
        {
            "buffer" : 0, 
            "byteLength" : 602112, 
            "byteOffset" : 0, 
            "target" : 34963
        }, 
        {
            "buffer" : 0, 
            "byteLength" : 1203252, 
            "byteOffset" : 602112, 
            "target" : 34962
        }, 
        {
            "buffer" : 0, 
            "byteLength" : 1203252, 
            "byteOffset" : 1805364, 
            "target" : 34962
        }, 
        {
            "buffer" : 0, 
            "byteLength" : 1604336, 
            "byteOffset" : 3008616, 
            "target" : 34962
        }, 
        {
            "buffer" : 0, 
            "byteLength" : 802168, 
            "byteOffset" : 4612952, 
            "target" : 34962
        }, 
        {
            "buffer" : 0, 
            "byteLength" : 36, 
            "byteOffset" : 5415120, 
            "target" : 34963
        }, 
        {
            "buffer" : 0, 
            "byteLength" : 288, 
            "byteOffset" : 5415156, 
            "target" : 34962
        }, 
        {
            "buffer" : 0, 
            "byteLength" : 288, 
            "byteOffset" : 5415444, 
            "target" : 34962
        }
    ], 
    "buffers" : [
        {
            "byteLength" : 5415732, 
            "uri" : "The Ranch.bin"
        }
    ], 
    "cameras" : [
        {
            "extensions" : {
                "S8S_v3d_camera_data" : {
                    "controls" : "ORBIT", 
                    "orbitMaxDistance" : 1000.0, 
                    "orbitMaxPolarAngle" : 3.1415927410125732, 
                    "orbitMinDistance" : 0.0, 
                    "orbitMinPolarAngle" : 0.0, 
                    "orbitTarget" : [
                        -13.0, 
                        -4.0, 
                        8.0
                    ], 
                    "viewportFitInitialAspect" : 1.7777777616808443, 
                    "viewportFitType" : "AUTO"
                }
            }, 
            "name" : "Camera", 
            "perspective" : {
                "aspectRatio" : 1.7777777616808443, 
                "yfov" : 0.5033799416096446, 
                "zfar" : 1000.0, 
                "znear" : 0.10000000149011612
            }, 
            "type" : "perspective"
        }
    ], 
    "extensions" : {
        "S8S_v3d_data" : {
            "lights" : [
                {
                    "color" : [
                        1.0, 
                        1.0, 
                        1.0
                    ], 
                    "name" : "Ambient_Scene", 
                    "type" : "ambient"
                }
            ]
        }
    }, 
    "extensionsUsed" : [
        "S8S_v3d_texture_data", 
        "S8S_v3d_material_data", 
        "S8S_v3d_camera_data", 
        "S8S_v3d_data", 
        "S8S_v3d_mesh_data", 
        "S8S_v3d_node_data", 
        "S8S_v3d_scene_data"
    ], 
    "images" : [
        {
            "uri" : "v3d_exported_image_Untitled"
        }
    ], 
    "materials" : [
        {
            "emissiveFactor" : [
                0.0, 
                0.0, 
                0.0
            ], 
            "extensions" : {
                "S8S_v3d_material_data" : {
                    "alpha" : 1.0, 
                    "diffuseColor" : [
                        0.008761299774050713, 
                        0.022992374375462532, 
                        0.8000000715255737
                    ], 
                    "diffuseIntensity" : 0.800000011920929, 
                    "diffuseShader" : "LAMBERT", 
                    "nodeGraph" : {
                        "edges" : [], 
                        "nodes" : [
                            {
                                "inputs" : [
                                    [
                                        0.0, 
                                        0.0, 
                                        0.0, 
                                        1.0
                                    ], 
                                    [
                                        0.0, 
                                        0.0, 
                                        0.0, 
                                        1.0
                                    ], 
                                    0.0, 
                                    [
                                        0.0, 
                                        0.0, 
                                        0.0
                                    ]
                                ], 
                                "invertNormal" : false, 
                                "is_active_output" : false, 
                                "name" : "Material", 
                                "outputs" : [
                                    [
                                        0.0, 
                                        0.0, 
                                        0.0, 
                                        0.0
                                    ], 
                                    0.0, 
                                    [
                                        0.0, 
                                        0.0, 
                                        0.0
                                    ]
                                ], 
                                "type" : "MATERIAL", 
                                "useDiffuse" : true, 
                                "useSpecular" : true
                            }, 
                            {
                                "inputs" : [
                                    [
                                        0.003740496002137661, 
                                        0.023763928562402725, 
                                        0.34547433257102966, 
                                        1.0
                                    ], 
                                    1.0
                                ], 
                                "is_active_output" : true, 
                                "name" : "Output", 
                                "outputs" : [], 
                                "type" : "OUTPUT"
                            }
                        ]
                    }, 
                    "specularAlpha" : 1.0, 
                    "specularColor" : [
                        1.0, 
                        1.0, 
                        1.0
                    ], 
                    "specularHardness" : 50, 
                    "specularIntensity" : 0.5, 
                    "specularShader" : "COOKTORR", 
                    "useCastShadows" : false, 
                    "useShadeless" : false, 
                    "useShadows" : false
                }
            }, 
            "name" : "Material.001"
        }, 
        {
            "emissiveFactor" : [
                0.0, 
                0.0, 
                0.0
            ], 
            "extensions" : {
                "S8S_v3d_material_data" : {
                    "alpha" : 1.0, 
                    "diffuseColor" : [
                        0.800000011920929, 
                        0.800000011920929, 
                        0.800000011920929
                    ], 
                    "diffuseIntensity" : 0.800000011920929, 
                    "diffuseShader" : "LAMBERT", 
                    "diffuseTexture" : {
                        "index" : 0
                    }, 
                    "specularAlpha" : 1.0, 
                    "specularColor" : [
                        1.0, 
                        1.0, 
                        1.0
                    ], 
                    "specularHardness" : 50, 
                    "specularIntensity" : 0.5, 
                    "specularShader" : "COOKTORR", 
                    "useCastShadows" : false, 
                    "useShadeless" : false, 
                    "useShadows" : false
                }
            }, 
            "name" : "template_material"
        }
    ], 
    "meshes" : [
        {
            "extensions" : {
                "S8S_v3d_mesh_data" : {
                    "colorLayers" : {}, 
                    "uvLayers" : {}
                }
            }, 
            "name" : "Plane.004", 
            "primitives" : [
                {
                    "attributes" : {
                        "NORMAL" : 2, 
                        "POSITION" : 1, 
                        "TANGENT" : 3, 
                        "TEXCOORD_0" : 4
                    }, 
                    "indices" : 0, 
                    "material" : 1, 
                    "mode" : 4
                }
            ]
        }, 
        {
            "extensions" : {
                "S8S_v3d_mesh_data" : {
                    "colorLayers" : {}, 
                    "uvLayers" : {}
                }
            }, 
            "name" : "Cube.001", 
            "primitives" : [
                {
                    "attributes" : {
                        "NORMAL" : 7, 
                        "POSITION" : 6
                    }, 
                    "indices" : 5, 
                    "material" : 0, 
                    "mode" : 4
                }
            ]
        }
    ], 
    "nodes" : [
        {
            "camera" : 0, 
            "extensions" : {
                "S8S_v3d_node_data" : {
                    "frustumCulling" : true, 
                    "hidden" : false, 
                    "renderOrder" : 0
                }
            }, 
            "name" : "Camera", 
            "rotation" : [
                -0.26930177211761475, 
                0.0216318741440773, 
                0.006050589960068464, 
                0.9627938866615295
            ], 
            "scale" : [
                1.0, 
                1.0, 
                1.0
            ], 
            "translation" : [
                -5.286308288574219, 
                70.74891662597656, 
                133.26930236816406
            ]
        }, 
        {
            "extensions" : {
                "S8S_v3d_node_data" : {
                    "frustumCulling" : true, 
                    "hidden" : false, 
                    "renderOrder" : 0
                }
            }, 
            "mesh" : 1, 
            "name" : "Cube", 
            "translation" : [
                43.89223098754883, 
                -3.7032482624053955, 
                8.308610916137695
            ]
        }, 
        {
            "extensions" : {
                "S8S_v3d_node_data" : {
                    "frustumCulling" : true, 
                    "hidden" : false, 
                    "renderOrder" : 0
                }
            }, 
            "mesh" : 0, 
            "name" : "parcel-contour", 
            "scale" : [
                10.0, 
                10.0, 
                10.0
            ], 
            "translation" : [
                -0.0026038289070129395, 
                -6.816246032714844, 
                0.0026111602783203125
            ]
        }
    ], 
    "samplers" : [
        {}
    ], 
    "scene" : 0, 
    "scenes" : [
        {
            "extensions" : {
                "S8S_v3d_scene_data" : {
                    "ambientColor" : [
                        0.0, 
                        0.0, 
                        0.0
                    ], 
                    "horizonColor" : [
                        0.05087608844041824, 
                        0.05087608844041824, 
                        0.05087608844041824
                    ], 
                    "light" : 0
                }
            }, 
            "name" : "Scene", 
            "nodes" : [
                1, 
                0, 
                2
            ]
        }
    ], 
    "textures" : [
        {
            "extensions" : {
                "S8S_v3d_texture_data" : {
                    "colorSpace" : "srgb"
                }
            }, 
            "name" : "Texture", 
            "sampler" : 0, 
            "source" : 0
        }
    ]
}
